<?xml version="1.0" encoding="UTF-8"?>
<svg xmlns="http://www.w3.org/2000/svg" version="1.1" viewBox="0 0 283.5 283.5">
  <defs>
    <style>
      .cls-1 {
        fill: #fff;
      }

      .cls-2 {
        stroke: #272d65;
      }

      .cls-2, .cls-3 {
        fill: none;
        stroke-miterlimit: 10;
      }

      .cls-3 {
        stroke: #73799b;
      }

      .cls-4 {
        fill: #272d65;
      }
    </style>
  </defs>
  <!-- Generator: Adobe Illustrator 28.7.2, SVG Export Plug-In . SVG Version: 1.2.0 Build 154)  -->
  <g>
    <g id="Capa_1">
      <rect class="cls-1" width="283.9" height="283.9"/>
      <rect class="cls-3" x="34.8" y="34.8" width="213.8" height="213.8" transform="translate(32.3 -26.2) rotate(11.9)"/>
      <rect class="cls-2" x="34.8" y="34.8" width="213.8" height="213.8" transform="translate(8.6 -8.1) rotate(3.4)"/>
      <rect class="cls-2" x="34.8" y="34.8" width="213.8" height="213.8" transform="translate(60.1 -41.3) rotate(21)"/>
      <g>
        <g>
          <path d="M78.6,151l4.8,25.2,5-1,1.2,6.3-13.2,2.5-6-31.6,8.2-1.6Z"/>
          <path d="M100.8,146.8l10.7,30.7-8.4,1.6-1.5-5.6-2.9.6.6,5.8-8.5,1.6-1.8-32.4,11.9-2.3ZM100.3,167.9c-1.1-3.5-2.4-7.8-3.8-13,.3,6.2.6,10.7,1,13.6l2.8-.5Z"/>
          <path d="M126.1,151.9l-7.6,1.5-.4-2.3c-.2-1.1-.4-1.8-.7-2s-.6-.3-1.1-.3-.8.4-1,.8c-.2.5-.2,1.1,0,1.9s.5,1.8.9,2.3c.4.5,1.3,1,2.7,1.5,4.1,1.5,6.7,2.8,7.9,4s2.1,3.4,2.7,6.5.5,4,.2,5.1-1.2,2.3-2.5,3.3-3.1,1.7-5.1,2.1-4.2.4-5.9-.2-2.9-1.4-3.7-2.6-1.3-3-1.8-5.3l-.4-2.1,7.6-1.5.7,3.8c.2,1.2.5,1.9.8,2.2s.7.4,1.2.3.9-.4,1.1-.9.2-1.1,0-2c-.4-1.9-.8-3-1.5-3.5-.6-.5-2.1-1.2-4.4-2.1-2.3-1-3.8-1.7-4.6-2.2s-1.5-1.2-2.1-2.2-1.1-2.3-1.4-4c-.5-2.4-.5-4.2,0-5.5s1.2-2.3,2.5-3.2,2.9-1.5,4.8-1.9,4-.4,5.6,0,2.8,1.1,3.5,2,1.3,2.7,1.7,5.2l.2,1.2Z"/>
          <path d="M144.1,138.6l1.2,6.3-4.9.9,4.8,25.2-8.2,1.6-4.8-25.2-4.9.9-1.2-6.3,17.9-3.4Z"/>
          <path d="M145.9,138.2l13.7-2.6,1.2,6.3-5.5,1,1.1,6,5.1-1,1.1,6-5.1,1,1.3,6.9,6-1.1,1.2,6.3-14.2,2.7-6-31.6Z"/>
          <path d="M162.5,135l5.8-1.1c3.9-.7,6.5-1.1,8-1.1s2.7.6,3.8,1.7,1.9,2.9,2.4,5.6.5,4.2,0,5.1-1.6,1.7-3.3,2.2c1.7,0,2.9.4,3.6,1s1.2,1.1,1.4,1.7.6,2.1,1.1,4.6l1.6,8.3-7.6,1.5-2-10.5c-.3-1.7-.7-2.7-1-3.1s-1.1-.4-2.2-.2l2.7,14.2-8.2,1.6-6-31.6ZM171.8,138.9l1.3,7c.9-.2,1.5-.4,1.9-.8s.4-1.2,0-2.6l-.3-1.7c-.2-1-.5-1.6-.9-1.9s-1.1-.3-2,0Z"/>
        </g>
        <polygon class="cls-4" points="185.2 142.8 216.7 114.1 176.7 99.3 179.3 112.4 66.8 133.5 70.1 150.7 182.6 129.6 185.2 142.8"/>
      </g>
    </g>
  </g>
</svg>