<?xml version="1.0" encoding="UTF-8"?>
<svg xmlns="http://www.w3.org/2000/svg" version="1.1" xmlns:xlink="http://www.w3.org/1999/xlink" viewBox="0 0 4816.3 1264.5">
  <defs>
    <style>
      .cls-1 {
        fill: #fff;
      }

      .cls-2 {
        isolation: isolate;
      }

      .cls-3 {
        display: none;
      }
    </style>
  </defs>
  <!-- Generator: Adobe Illustrator 28.7.2, SVG Export Plug-In . SVG Version: 1.2.0 Build 154)  -->
  <g>
    <g id="Capa_1">
      <g id="Capa_1-2" data-name="Capa_1">
        <image class="cls-2" width="5760" height="3840" transform="translate(-106.5 -709.4) scale(.9)" xlink:href="flat-lay-keyboard-headphones-with-copy-space.jpg"/>
      </g>
    </g>
    <g id="Capa_2">
      <g>
        <path class="cls-1" d="M2061.5,503.6c.5-7.1,7.3-38.6,12.3-62.5l12.6-56.7h52.4l15.9,69.6c3.5,16.4,6.3,37,7.6,49.6h1.3c1-11.3,5.3-37.5,7.6-48.1l8.6-38.3h-13.9v-32.8h72.1v32.8h-13.9l-37.5,143.4h-59.7l-15.1-60c-2.3-8.6-5-23.4-6.3-31.2h-1c-1,7.6-4.3,23.4-6,30.7l-15.4,60.5h-58.5l-33.3-143.4h-14.1v-32.8h83.2v32.8h-14.6l6.6,36.8c2.8,12.1,7.1,42.1,8.1,49.6h1.3Z"/>
        <path class="cls-1" d="M2241.7,560.6v-33h10.6v-60.2h-10.6v-32.8h58.5v93h12.1v33h-70.6ZM2275.9,372.1c17.4,0,27.7,14.1,27.7,25.7s-9.8,25.5-27.7,25.5-27.2-13.4-27.2-25.5,9.6-25.7,27.2-25.7Z"/>
        <path class="cls-1" d="M2335.9,434.6v-23.2l46.4-14.9v38.1h23.9v32.8h-23.9v44.9c0,8.6-1.8,20.2,8.1,20.2s11.1-2.3,15.9-4.3v32.3c-7.6,3-24.7,4.8-30.5,4.8-37.8,0-39.1-20.7-39.8-52.9v-44.9h-13.6v-32.8h13.6Z"/>
        <path class="cls-1" d="M2416.3,560.6v-33h10.6v-123.2h-10.6v-32.8h61v78.6c2.8-4.5,21.2-20.2,39.6-20.2,39.1,0,44.1,29,44.1,55.4v42.1h11.8v33h-64.8v-68.5c0-8.6,0-23.4-14.9-23.4s-15.9,12.6-15.9,23.4v35.5h18.1v33h-79.1Z"/>
        <path class="cls-1" d="M2724.2,466.6v-32h64v31.2h-12.1l-47.9,116.4c-7.3,15.6-17.6,35.8-54.2,35.5-13.1-.8-22.9-6-30.5-12.6l18.9-29.7c4.3,3.8,9.3,7.6,14.6,8.6,7.8,1.5,13.6-5.8,16.1-13.4l3.5-10.6-49.1-93.2h-10.3v-32.3h77.6v32h-11.8l16.4,39.3,16.4-39.3h-11.6Z"/>
        <path class="cls-1" d="M2788.5,497.1c.3-42.1,34.3-65.5,69.1-65.5,39.8.5,69.3,24.4,70.1,66.5.5,41.8-30.5,65.8-68.8,65.8s-70.8-22.2-70.3-66.8ZM2875.9,498.1c0-18.9-6.6-33.5-18.4-33.8-9.8,0-17.4,14.6-17.4,33s8.1,34.3,18.6,34.3,17.1-14.6,17.1-33.5Z"/>
        <path class="cls-1" d="M2995.1,434.6v60.7c0,21.7,3.3,31.8,13.6,31.8s15.9-7.8,15.9-19.2v-40.1h-16.6v-33.3h65.3v92.5h12.3v33.5h-47.6l-6.8-15.9c-5.5,6.3-14.4,19.4-35.8,19.4-38.1,0-50.7-19.7-50.7-61.5v-34.8h-10.6v-33.3h61Z"/>
        <path class="cls-1" d="M3095.7,560.6v-33h11.1v-60.2h-10.8v-32.8h47.4l7.6,16.1c6.6-12.1,13.1-22.4,39.1-22.4v45.4c-22.7,0-35.5,5.8-35.5,28v26h12.6v33h-71.3Z"/>
        <path class="cls-1" d="M3263,417.4c14.4-7.1,25.7-11.1,44.1-33h44.9v142.6h23.4v33.5h-100.8v-33.5h25.2v-93.5l-25.2,11.8-11.6-28Z"/>
        <path class="cls-1" d="M3384.6,483.9h25.8c0,10.2,14.6,12.9,20.4,12.9s8.5-1.2,8.5-6.6-14.5-6.7-28.3-11.6c-13.1-4.6-25.6-12.7-25.6-30.8s20.2-27.9,33.9-27.9,24.7,6.7,28.7,15l1.5-12.7h23.7v34.7h-25.1c0-8.1-10-14.6-19.7-14.6s-7.5,2.1-7.5,6.9,11.4,7.7,23.7,11.9c14.6,5,31,10.6,31,30.8s-17.2,28.9-35.8,28.9-24.9-6.7-29.5-14.1l-1.7,11.8h-24.1v-34.7Z"/>
        <path class="cls-1" d="M3492.9,422.2v-17.7l35.5-11.4v29.1h18.3v25.1h-18.3v34.3c0,6.6-1.3,15.4,6.2,15.4s8.5-1.7,12.1-3.3v24.7c-5.8,2.3-18.9,3.7-23.3,3.7-28.9,0-29.9-15.8-30.4-40.5v-34.3h-10.4v-25.1h10.4Z"/>
        <path class="cls-1" d="M3629.4,579v-110.9h-10.6v-33.5h57.7l4.3,8.8c4.8-3.5,15.4-10.8,30.5-10.8,39.3,0,59.5,30.2,59.5,66s-24.9,64.8-57.5,64.8-31-8.3-32.8-9.8v25.5h13.6v33h-75.4v-33h10.6ZM3698.4,468.1c-9.8,0-18.9,12.3-17.9,32.3,0,17.1,8.6,30.2,18.1,30.2s17.9-12.3,17.9-31.5-7.1-31-18.1-31Z"/>
        <path class="cls-1" d="M3838.1,434.6v60.7c0,21.7,3.3,31.8,13.6,31.8s15.9-7.8,15.9-19.2v-40.1h-16.6v-33.3h65.3v92.5h12.3v33.5h-47.6l-6.8-15.9c-5.5,6.3-14.4,19.4-35.8,19.4-38.1,0-50.7-19.7-50.7-61.5v-34.8h-10.6v-33.3h61Z"/>
        <path class="cls-1" d="M3938.6,560.6v-33h11.1v-60.2h-10.8v-32.8h47.4l7.6,16.1c6.6-12.1,13.1-22.4,39.1-22.4v45.4c-22.7,0-35.5,5.8-35.5,28v26h12.6v33h-71.3Z"/>
        <path class="cls-1" d="M4127.3,491.5c-.5-12.1-4.3-26.5-15.9-26.5s-22.2,15.9-22.2,32.3,9.8,29.5,26,29.7c13.4.3,22.2-5.3,30.5-14.4l22.2,25.7c-11.8,12.9-34.5,25.7-61.7,25.7s-69.3-22.4-69.3-67.3,29.7-64.5,62-64.5,27.2,9.3,31.5,14.4l4.3-12.1h29.7v57h-37Z"/>
        <path class="cls-1" d="M4176.7,560.6v-33h10.6v-123.2h-10.6v-32.8h61v78.6c2.8-4.5,21.2-20.2,39.6-20.2,39.1,0,44.1,29,44.1,55.4v42.1h11.8v33h-64.8v-68.5c0-8.6,0-23.4-14.9-23.4s-15.9,12.6-15.9,23.4v35.5h18.1v33h-79.1Z"/>
        <path class="cls-1" d="M4346.1,445.1c10.1-6,31.8-17.9,54.9-17.9s68.3,11.3,68.3,51.9v49.1h15.1v32.3h-53.9l-6-11.3c-9.3,12.9-24.9,16.1-34,16.1-23.9,0-49.6-12.9-49.6-42.1s23.9-46.4,52.4-46.4,23.7,7.3,24.9,8.8v-8.8c0-11.3-10.3-14.1-23.9-14.1s-28,6.3-37.5,11.6l-10.6-29.2ZM4418.1,514.7c-.8-1.3-4.3-7.3-14.9-7.3s-14.6,5.5-14.6,13.4,5.8,11.8,13.4,11.8,13.9-4.5,16.1-8.3v-9.6Z"/>
        <path class="cls-1" d="M4492,515.2h33.8c0,13.4,19.2,16.9,26.7,16.9s11.1-1.5,11.1-8.6-18.9-8.8-37-15.1c-17.1-6-33.5-16.6-33.5-40.3s26.5-36.5,44.4-36.5,32.3,8.8,37.5,19.7l2-16.6h31v45.4h-32.8c0-10.6-13.1-19.2-25.7-19.2s-9.8,2.8-9.8,9.1,14.9,10.1,31,15.6c19.2,6.6,40.6,13.9,40.6,40.3s-22.4,37.8-46.9,37.8-32.5-8.8-38.6-18.4l-2.3,15.4h-31.5v-45.4Z"/>
        <path class="cls-1" d="M4749,543.2c-18.6,16.1-38.8,21.9-65,21.9s-66.5-19.9-66.5-68.3,29.7-65.8,67.8-65.8,52.9,15.4,60.2,36.5c3,8.8,5.8,28.2.5,42.6h-79.4c1.5,6.8,4.8,20.7,26,20.7s21.7-.8,35.3-12.1l21.2,24.4ZM4705.4,485.2c-.3-9.6-2.5-20.2-18.6-20.2s-18.9,13.9-19.4,20.2h38.1Z"/>
      </g>
      <g>
        <path class="cls-1" d="M3145.9,720.4c13.7-15.9,31.4-24.4,51.1-24.4s46.7,16.5,46.7,43-10.6,30.4-31.4,44c-9.4,6.1-24.9,18.5-29.5,26.3h34.6v-15.7h33v41.8h-106.1v-28.5c10.8-17.7,16.1-23.4,28.7-33.4,13.9-12.4,34.8-20.6,34.8-32.8s-7.5-13-16.5-13-18.3,8.6-24.2,14.9l-21.2-22.4Z"/>
        <path class="cls-1" d="M3258.3,766.2c0-41.6,22.8-70.5,55.4-70.5s56.4,28.5,56.4,71.9-19.8,70.3-55.4,70.3-56.4-23.4-56.4-71.7ZM3330.5,767.5c0-23.4-7.5-40.3-17.1-40.3-7.3-.2-16.3,14.9-16.3,38.9s9.6,41.2,17.5,41.2,15.9-15.9,15.9-39.9Z"/>
        <path class="cls-1" d="M3384.1,734.7c0-15.5,8.4-26.1,20.6-26.1s21.6,10.6,21.6,27.5-7.5,25.9-20.6,25.9-21.6-8.8-21.6-27.3ZM3411.2,736.1c0-9.4-2.4-15.7-6.7-15.7s-5.7,5.5-5.7,14.3,3.7,15.9,6.9,15.9,5.5-5.9,5.5-14.5ZM3441.1,709.2l-40.7,125.7h22.6l40.7-125.7h-22.6ZM3437.2,807.8c0-15.5,8.4-26.1,20.6-26.1s21.6,10.6,21.6,27.5-7.5,25.9-20.6,25.9-21.6-8.8-21.6-27.3ZM3464.3,809.2c0-9.4-2.4-15.7-6.7-15.7s-5.7,5.5-5.7,14.3,3.7,15.9,6.9,15.9,5.5-5.9,5.5-14.5Z"/>
        <path class="cls-1" d="M3603.1,713.7v-25.5h48.9v121.8h9.4v25.5h-46l-3.3-7.3c-2.6,2.4-11.2,9-24.7,9-27.7,0-45.6-24.5-45.6-51.8s21.4-50.1,45.6-50.1,21,5.1,24.7,7.5v-29.1h-9ZM3598.2,809.6c7.7,0,14.7-9.6,13.9-25.1,0-13.4-6.7-23.6-14.1-23.6s-13.9,9.6-13.9,24.5,5.5,24.2,14.1,24.2Z"/>
        <path class="cls-1" d="M3669.3,835.5v-25.7h8.2v-46.9h-8.2v-25.5h45.6v72.5h9.4v25.7h-55ZM3696,688.6c13.6,0,21.6,11,21.6,20s-7.7,19.8-21.6,19.8-21.2-10.4-21.2-19.8,7.5-20,21.2-20Z"/>
        <path class="cls-1" d="M3732.1,800.1h26.3c0,10.4,14.9,13.2,20.8,13.2s8.6-1.2,8.6-6.7-14.7-6.9-28.9-11.8c-13.4-4.7-26.1-13-26.1-31.4s20.6-28.5,34.6-28.5,25.1,6.9,29.3,15.3l1.6-13h24.2v35.4h-25.5c0-8.2-10.2-14.9-20-14.9s-7.7,2.2-7.7,7.1,11.6,7.9,24.2,12.2c14.9,5.1,31.6,10.8,31.6,31.4s-17.5,29.5-36.5,29.5-25.3-6.9-30-14.3l-1.8,12h-24.5v-35.4Z"/>
        <path class="cls-1" d="M3899.6,781.7c-.4-9.4-3.3-20.6-12.4-20.6s-17.3,12.4-17.3,25.1,7.7,23,20.2,23.2c10.4.2,17.3-4.1,23.8-11.2l17.3,20c-9.2,10-26.9,20-48.1,20s-54-17.5-54-52.4,23.2-50.3,48.3-50.3,21.2,7.3,24.5,11.2l3.3-9.4h23.2v44.4h-28.9Z"/>
        <path class="cls-1" d="M3935.4,786c.2-32.8,26.7-51.1,53.8-51.1,31,.4,54,19.1,54.6,51.8.4,32.6-23.8,51.3-53.6,51.3s-55.2-17.3-54.8-52ZM4003.5,786.8c0-14.7-5.1-26.1-14.3-26.3-7.7,0-13.6,11.4-13.6,25.7s6.3,26.7,14.5,26.7,13.4-11.4,13.4-26.1Z"/>
        <path class="cls-1" d="M4096.4,737.3v47.3c0,16.9,2.6,24.7,10.6,24.7s12.4-6.1,12.4-14.9v-31.2h-13v-25.9h50.9v72.1h9.6v26.1h-37.1l-5.3-12.4c-4.3,4.9-11.2,15.1-27.9,15.1-29.7,0-39.5-15.3-39.5-47.9v-27.1h-8.2v-25.9h47.5Z"/>
        <path class="cls-1" d="M4174.8,835.5v-25.7h8.2v-46.9h-8.2v-25.5h41.8l4.5,12.2c6.7-9.2,15.7-15.7,28.1-15.7,30.4,0,35.5,22.6,35.5,43.2v32.8h9.2v25.7h-49.5v-53.6c0-6.7.6-18.3-11-18.3s-12.4,9.8-12.4,18.3v27.9h14.1v25.7h-60.5Z"/>
        <path class="cls-1" d="M4310.5,737.3v-18.1l36.1-11.6v29.7h18.7v25.5h-18.7v35c0,6.7-1.4,15.7,6.3,15.7s8.6-1.8,12.4-3.3v25.1c-5.9,2.4-19.2,3.7-23.8,3.7-29.5,0-30.4-16.1-31-41.2v-35h-10.6v-25.5h10.6Z"/>
      </g>
    </g>
    <g id="Capa_3" class="cls-3">
      <g id="Capa_2-2" data-name="Capa_2">
        <g>
          <path class="cls-1" d="M2472,416c15.4-7.6,27.6-11.9,47.3-35.4h48.1v153h25.1v35.9h-108.1v-35.9h27v-100.3l-27,12.7-12.4-30h0Z"/>
          <path class="cls-1" d="M2634,510.6c19.7,0,31.1,17,31.1,30.8s-10.8,29.2-31.1,29.2-30.5-14.9-30.5-29.2,10.8-30.8,30.5-30.8h0Z"/>
          <path class="cls-1" d="M2918.9,380.6v59.7h-46.8v-24.1h-43.2v37.3h51.3v35.9h-51.3v44.1h43.2v-25.1h46.8v61.1h-163v-35.9h17v-117.3h-17v-35.7h163Z"/>
          <path class="cls-1" d="M2932.5,569.5v-35.4h11.9v-64.6h-11.6v-35.1h50.8l8.1,17.3c7-13,14-24.1,41.9-24.1v48.6c-24.3,0-38.1,6.2-38.1,30v27.8h13.5v35.4h-76.5,0Z"/>
          <path class="cls-1" d="M3040.7,501.4c.3-45.1,36.8-70.3,74.1-70.3,42.7.5,74.3,26.2,75.1,71.4.6,44.9-32.7,70.5-73.8,70.5s-75.9-23.8-75.4-71.6h0ZM3134.5,502.5c0-20.3-7-35.9-19.7-36.2-10.5,0-18.6,15.7-18.6,35.4s8.6,36.8,20,36.8,18.4-15.7,18.4-35.9h0Z"/>
          <path class="cls-1" d="M3197,520.9h36.2c0,14.3,20.5,18.1,28.7,18.1s11.9-1.6,11.9-9.2-20.3-9.5-39.7-16.2c-18.4-6.5-36-17.8-36-43.2s28.4-39.2,47.6-39.2,34.6,9.5,40.3,21.1l2.2-17.8h33.3v48.6h-35.1c0-11.4-14.1-20.5-27.6-20.5s-10.5,3-10.5,9.7,16,10.8,33.3,16.8c20.5,7,43.5,14.9,43.5,43.2s-24.1,40.5-50.3,40.5-34.9-9.5-41.3-19.7l-2.4,16.5h-33.8v-48.6h-.3Z"/>
          <path class="cls-1" d="M3340.6,534.4h11.1v-132.2h-11.1v-35.4h62.4v122.2l31.3-18.6h-19.5v-35.7h75.7v35.7h-20.8l-18.4,11.6,36.5,52.2h13.5v35.4h-80v-35.4h11.4l-20.6-29.2-9.5,6.5v22.7h10v35.4h-72.2v-35.1h.2Z"/>
          <path class="cls-1" d="M3649.5,550.8c-20,17.3-41.6,23.5-69.7,23.5s-71.4-21.3-71.4-73.2,31.9-70.5,72.7-70.5,56.8,16.5,64.6,39.2c3.3,9.5,6.2,30.3.6,45.7h-85.1c1.6,7.3,5.1,22.2,27.8,22.2s23.2-.8,37.9-13l22.7,26.2h-.1ZM3602.8,488.7c-.3-10.3-2.7-21.6-20-21.6s-20.3,14.9-20.8,21.6h40.8Z"/>
          <path class="cls-1" d="M3672.3,434.4v-24.9l49.7-15.9v40.8h25.7v35.1h-25.7v48.1c0,9.2-1.9,21.6,8.6,21.6s11.9-2.4,17-4.6v34.6c-8.1,3.2-26.5,5.1-32.7,5.1-40.5,0-41.9-22.2-42.7-56.8v-48.1h-14.6v-35.1h14.7Z"/>
          <path class="cls-1" d="M3761.6,445.7c10.8-6.5,34.1-19.2,58.9-19.2s73.3,12.2,73.3,55.7v52.7h16.2v34.6h-57.9l-6.5-12.2c-10,13.8-26.8,17.3-36.5,17.3-25.7,0-53.3-13.8-53.3-45.1s25.7-49.7,56.2-49.7,25.4,7.8,26.8,9.5v-9.5c0-12.2-11.1-15.1-25.7-15.1s-30,6.8-40.3,12.4l-11.4-31.4h.2ZM3838.9,520.3c-.8-1.4-4.6-7.8-16-7.8s-15.7,6-15.7,14.3,6.2,12.7,14.3,12.7,14.9-4.9,17.3-8.9v-10.3h0Z"/>
          <path class="cls-1" d="M3920.8,569.5v-35.4h11.9v-64.6h-11.6v-35.1h50.8l8.1,17.3c7-13,14-24.1,41.9-24.1v48.6c-24.3,0-38.1,6.2-38.1,30v27.8h13.5v35.4h-76.5,0Z"/>
          <path class="cls-1" d="M4168.4,550.8c-20,17.3-41.6,23.5-69.7,23.5s-71.4-21.3-71.4-73.2,31.9-70.5,72.7-70.5,56.8,16.5,64.6,39.2c3.3,9.5,6.2,30.3.6,45.7h-85.1c1.6,7.3,5.1,22.2,27.8,22.2s23.2-.8,37.9-13l22.7,26.2h-.1ZM4121.7,488.7c-.3-10.3-2.7-21.6-20-21.6s-20.3,14.9-20.8,21.6h40.8Z"/>
          <path class="cls-1" d="M4182.9,534.4h11.1v-132.2h-11.1v-35.4h62.4v122.2l31.3-18.6h-19.5v-35.7h75.7v35.7h-20.8l-18.4,11.6,36.5,52.2h13.5v35.4h-80v-35.4h11.4l-20.6-29.2-9.5,6.5v22.7h10v35.4h-72.2v-35.1h.2Z"/>
          <path class="cls-1" d="M4356.2,569.5v-35.4h11.4v-64.6h-11.4v-35.1h62.7v99.7h13v35.4h-75.7ZM4392.9,367.3c18.7,0,29.7,15.1,29.7,27.6s-10.5,27.3-29.7,27.3-29.2-14.3-29.2-27.3,10.3-27.6,29.2-27.6Z"/>
          <path class="cls-1" d="M4445.4,569.5v-35.4h11.4v-64.6h-11.4v-35.1h57.6l6.2,16.8c9.2-12.7,21.6-21.6,38.7-21.6,41.9,0,48.9,31.1,48.9,59.4v45.1h12.7v35.4h-68.1v-73.8c0-9.2.8-25.1-15.1-25.1s-17,13.5-17,25.1v38.4h19.5v35.4h-83.4Z"/>
        </g>
        <g>
          <path class="cls-1" d="M3055.9,739.3c0-14,7.6-23.6,18.7-23.6s19.6,9.6,19.6,24.9-6.8,23.5-18.7,23.5-19.6-8-19.6-24.7h0ZM3080.5,740.5c0-8.5-2.1-14.2-6.1-14.2s-5.2,5-5.2,13,3.4,14.4,6.2,14.4,5-5.3,5-13.2h.1ZM3107.5,716.1l-36.8,113.8h20.5l36.8-113.8h-20.5ZM3103.9,805.4c0-14.1,7.6-23.7,18.7-23.7s19.6,9.6,19.6,24.9-6.7,23.5-18.7,23.5-19.6-8-19.6-24.7ZM3128.5,806.7c0-8.5-2.1-14.2-6.1-14.2s-5.2,5-5.2,13,3.4,14.4,6.2,14.4,5-5.3,5-13.2h.1Z"/>
          <path class="cls-1" d="M3158.4,726.3c12.5-14.4,28.5-22,46.2-22s42.3,14.9,42.3,38.9-9.6,27.6-28.5,39.8c-8.5,5.5-22.6,16.7-26.7,23.8h31.3v-14.2h29.9v37.9h-96v-25.8c9.8-16,14.6-21.2,26-30.2,12.6-11.2,31.5-18.7,31.5-29.7s-6.8-11.7-14.9-11.7-16.5,7.8-21.9,13.5l-19.2-20.3h0Z"/>
          <path class="cls-1" d="M3260.2,767.7c0-37.7,20.6-63.8,50.2-63.8s51,25.8,51,65.1-18,63.7-50.1,63.7-51-21.2-51-64.9h0ZM3325.6,769c0-21.2-6.8-36.5-15.5-36.5-6.6-.2-14.8,13.5-14.8,35.2s8.7,37.4,15.8,37.4,14.4-14.4,14.4-36.1h.1Z"/>
          <path class="cls-1" d="M3424,776.3v23.7h-51.6v-23.7h51.6Z"/>
          <path class="cls-1" d="M3439.5,807.4h7.3v-87h-7.3v-23.3h41.1v80.4l20.6-12.3h-12.8v-23.5h49.8v23.5h-13.7l-12.1,7.6,24,34.3h8.9v23.3h-52.6v-23.3h7.5l-13.5-19.2-6.2,4.3v14.9h6.6v23.3h-47.5v-23.1h-.1Z"/>
          <path class="cls-1" d="M3551.1,785.7c.2-29.7,24.2-46.2,48.7-46.2,28.1.4,48.9,17.3,49.4,46.9.4,29.5-21.5,46.4-48.5,46.4s-50-15.6-49.6-47.1h0ZM3612.8,786.4c0-13.3-4.6-23.6-13-23.8-6.9,0-12.3,10.3-12.3,23.3s5.7,24.2,13.2,24.2,12.1-10.3,12.1-23.7Z"/>
          <path class="cls-1" d="M3753,720.2v-23.1h44.3v110.3h8.5v23.1h-41.6l-3-6.6c-2.3,2.1-10.2,8.2-22.4,8.2-25.1,0-41.3-22.2-41.3-46.9s19.4-45.4,41.3-45.4,19,4.6,22.4,6.8v-26.3h-8.2ZM3748.6,807c6.9,0,13.3-8.7,12.6-22.8,0-12.1-6.1-21.3-12.8-21.3s-12.6,8.7-12.6,22.2,5,21.9,12.8,21.9h0Z"/>
          <path class="cls-1" d="M3902.3,818.2c-13.2,11.4-27.4,15.5-45.9,15.5s-47-14-47-48.2,21-46.4,47.8-46.4,37.3,10.8,42.5,25.8c2.1,6.2,4.1,19.9.4,30.1h-56c1.1,4.8,3.4,14.6,18.3,14.6s15.3-.5,24.9-8.5l14.9,17.2h.1ZM3871.5,777.3c-.2-6.8-1.8-14.2-13.2-14.2s-13.3,9.8-13.7,14.2h26.9Z"/>
          <path class="cls-1" d="M3907.7,798.5h23.8c0,9.4,13.5,11.9,18.9,11.9s7.8-1.1,7.8-6-13.3-6.2-26.1-10.7c-12.1-4.3-23.7-11.7-23.7-28.5s18.7-25.8,31.3-25.8,22.8,6.2,26.5,13.9l1.4-11.7h21.9v32h-23.1c0-7.5-9.3-13.5-18.1-13.5s-6.9,2-6.9,6.4,10.5,7.1,21.9,11c13.5,4.6,28.6,9.8,28.6,28.5s-15.8,26.7-33.1,26.7-22.9-6.2-27.2-13l-1.6,10.8h-22.2v-32h0Z"/>
          <path class="cls-1" d="M4002.1,807.4h7.3v-87h-7.3v-23.3h41.1v80.4l20.6-12.3h-12.8v-23.5h49.8v23.5h-13.7l-12.1,7.6,24,34.3h8.9v23.3h-52.6v-23.3h7.5l-13.5-19.2-6.2,4.3v14.9h6.6v23.3h-47.5v-23.1h0Z"/>
          <path class="cls-1" d="M4113.7,785.7c.2-29.7,24.2-46.2,48.7-46.2,28.1.4,48.9,17.3,49.4,46.9.4,29.5-21.5,46.4-48.5,46.4s-50-15.6-49.6-47.1h0ZM4175.4,786.4c0-13.3-4.6-23.6-13-23.8-6.9,0-12.3,10.3-12.3,23.3s5.7,24.2,13.2,24.2,12.1-10.3,12.1-23.7h0Z"/>
          <path class="cls-1" d="M4218.3,830.5v-23.3h7.5v-42.5h-7.5v-23.1h37.9l4.1,11c6.1-8.4,14.2-14.2,25.4-14.2,27.6,0,32.2,20.4,32.2,39.1v29.7h8.4v23.3h-44.8v-48.6c0-6,.5-16.5-10-16.5s-11.2,8.9-11.2,16.5v25.3h12.8v23.3h-54.8Z"/>
          <path class="cls-1" d="M4341.2,741.6v-16.4l32.7-10.5v26.9h16.9v23.1h-16.9v31.7c0,6-1.2,14.2,5.7,14.2s7.8-1.6,11.2-3v22.8c-5.3,2.1-17.4,3.4-21.5,3.4-26.7,0-27.6-14.6-28.1-37.3v-31.7h-9.6v-23.1h9.6,0Z"/>
          <path class="cls-1" d="M4439.3,741.6v42.9c0,15.3,2.3,22.4,9.6,22.4s11.2-5.5,11.2-13.5v-28.3h-11.7v-23.5h46v65.3h8.7v23.7h-33.6l-4.8-11.2c-3.9,4.4-10.2,13.7-25.3,13.7-26.9,0-35.8-13.9-35.8-43.4v-24.5h-7.5v-23.5h43.2Z"/>
          <path class="cls-1" d="M4512.2,749c7.1-4.3,22.4-12.6,38.8-12.6s48.2,8,48.2,36.6v34.7h10.7v22.8h-38.1l-4.3-8c-6.6,9.1-17.6,11.4-24,11.4-16.9,0-35-9.1-35-29.7s16.9-32.7,37-32.7,16.7,5.2,17.6,6.2v-6.2c0-8-7.3-10-16.9-10s-19.7,4.4-26.5,8.2l-7.5-20.6h0ZM4563.1,798.1c-.5-.9-3-5.2-10.5-5.2s-10.3,3.9-10.3,9.4,4.1,8.4,9.4,8.4,9.8-3.2,11.4-5.9v-6.8h0Z"/>
        </g>
      </g>
    </g>
  </g>
</svg>