<?xml version="1.0" encoding="UTF-8"?>
<svg xmlns="http://www.w3.org/2000/svg" version="1.1" viewBox="0 0 163.5 162.8">
  <defs>
    <style>
      .cls-1 {
        fill: #fff;
      }
    </style>
  </defs>
  <!-- Generator: Adobe Illustrator 28.7.1, SVG Export Plug-In . SVG Version: 1.2.0 Build 142)  -->
  <g>
    <g id="Capa_1">
      <g id="Capa_5">
        <g>
          <path class="cls-1" d="M101.5,157.6c-2.7,1.1-5.4,2.5-8.2,3.3-15.1,4.6-28.3.3-39.9-9.5-13-11-18.8-25.4-18.9-42.3,0-3,0-6,0-9,0-1.7.7-2.4,2.4-2.4,13.8,0,27.6,0,41.4,0,2.1,0,2.4,1.1,2.4,2.9,0,10.8.8,21.5,4.1,31.8,2.5,8.1,6.1,15.7,12.9,21.3.6.5,1.3,1,2,1.5.6.5,1.3.9,1.9,1.4,0,.3,0,.6,0,.9h0Z"/>
          <path class="cls-1" d="M105.8,97.9c6.7,0,13.4,0,20.1,0,2.8,0,3,.2,3,3.1,0,8.2.3,16.4-2.1,24.4-3.1,10.3-8.6,19.1-16.8,26.2-.4.3-.8.7-1.2,1-3.9,3.4-4.9,3.4-8.9.2-6.9-5.5-10.5-13.1-13-21.2-3.1-10.1-3.9-20.6-4.2-31.2,0-2,.9-2.6,2.7-2.5,6.8,0,13.6,0,20.4,0h0Z"/>
          <path class="cls-1" d="M34.5,70c0-7.6,0-15.2,0-22.8,0-2.1.7-2.8,2.8-2.7,15.6,1.1,29.6,6.4,42.5,15.2,1.7,1.2,1.4,6.2-.5,7.3-2.3,1.4-3.5,3.3-3.4,6.1,0,3.2,0,6.4,0,9.6,0,2.9,1.1,5,3.7,6.4,2.3,1.3,1.1,3.5,1.1,5.2,0,.4-1.7,1.2-2.6,1.2-13.5,0-27,0-40.5,0-2.7,0-2.9-.2-2.9-3,0-7.5,0-15.1,0-22.6h0,0Z"/>
          <path class="cls-1" d="M129,70.2c0,7.5,0,15.1,0,22.6,0,2.3-.8,2.9-3,2.9-13.4,0-26.8,0-40.2,0-.9,0-2.6-.6-2.7-1.1-.2-1.8-1.2-4,.9-5.3,2.8-1.6,3.9-3.9,3.7-7-.1-3.2,0-6.4,0-9.6s-1-4.1-3-5.4c-2.5-1.6-2.7-6.2-.2-7.9,7.3-4.9,15-9,23.5-11.2,6-1.6,12.1-2.5,18.2-3.4,2.7-.4,2.9,0,2.9,2.8,0,7.6,0,15.2,0,22.8h0Z"/>
          <path class="cls-1" d="M62.5,45.4c.7-.2,1.5-.5,2.3-.7,4.3-1.3,8.6-2.6,12.9-3.8,1.4-.4,2-1.3,2.1-2.7.4-4.8-1.7-7.9-5.8-10.2-2.5-1.4-5.1-3-6.9-5.2-3.4-4.1-3.2-10.2.2-15,1.8-2.5,4.2-4.7,6.5-6.7,1.9-1.6,4.2-1.2,5.5.5,1.3,1.7.8,3.5-1.1,5.2-1.7,1.6-3.5,3.3-4.9,5.2-2.3,3.2-1.7,5.8,1.6,8,2.4,1.7,5,3,7.2,4.9,4.1,3.7,5.7,8.5,4.9,14-.2,1.6.2,2.5,1.8,2.9,3.4.9,6.7,1.9,10.1,2.9.8.2,1.5.5,2.9.9-1.1.6-1.6.9-2.1,1.2-5.3,3-10.7,5.9-15.9,9-1.6.9-2.5,1-4.1,0-5-3.1-10.3-5.9-15.5-8.8-.6-.3-1.1-.6-1.7-.9,0-.2,0-.4,0-.7h0Z"/>
          <path class="cls-1" d="M77.8,77.9c0-1.7,0-3.4,0-5.1.1-2.5,1.7-4.1,3.8-4.1,2.2,0,4,1.4,4.1,3.9.2,3.6.2,7.3,0,10.9-.1,2.4-1.8,3.7-4,3.7-2.1,0-3.6-1.5-3.8-3.9,0-.1,0-.3,0-.4v-4.9h0Z"/>
        </g>
      </g>
    </g>
  </g>
</svg>