<?xml version="1.0" encoding="UTF-8"?>
<svg xmlns="http://www.w3.org/2000/svg" version="1.1" xmlns:xlink="http://www.w3.org/1999/xlink" viewBox="0 0 163.5 162.8">
  <defs>
    <style>
      .cls-1 {
        fill: #2a4698;
      }

      .cls-2 {
        fill: #273684;
      }

      .cls-3 {
        fill: url(#Degradado_sin_nombre);
      }

      .cls-4 {
        fill: #1d1d1b;
      }

      .cls-5 {
        fill: #272d65;
      }
    </style>
    <linearGradient id="Degradado_sin_nombre" data-name="Degradado sin nombre" x1="0" y1="71" x2="74" y2="71" gradientTransform="translate(0 164) scale(1 -1)" gradientUnits="userSpaceOnUse">
      <stop offset="0" stop-color="#2a4698"/>
      <stop offset=".5" stop-color="#273684"/>
      <stop offset="1" stop-color="#272d65"/>
    </linearGradient>
  </defs>
  <!-- Generator: Adobe Illustrator 28.7.1, SVG Export Plug-In . SVG Version: 1.2.0 Build 142)  -->
  <g>
    <g id="Capa_1">
      <g id="Capa_5">
        <g>
          <path class="cls-1" d="M140,130.8c-2.2.9-4.4,2.1-6.8,2.8-12.6,3.8-23.5.2-33.1-7.9-10.8-9.1-15.6-21.1-15.7-35.1,0-2.5,0-4.9,0-7.4,0-1.4.6-2,2-2,11.4,0,22.9,0,34.3,0,1.8,0,2,.9,2,2.4,0,8.9.7,17.8,3.4,26.4,2.1,6.8,5.1,13.1,10.7,17.7.5.4,1.1.8,1.6,1.2.5.4,1.1.8,1.6,1.2,0,.2,0,.5,0,.7h0Z"/>
          <path class="cls-2" d="M143.6,81.2c5.6,0,11.1,0,16.7,0,2.3,0,2.5.2,2.5,2.6,0,6.8.2,13.6-1.8,20.3-2.6,8.6-7.1,15.9-13.9,21.7-.3.3-.7.5-1,.8-3.2,2.9-4.1,2.9-7.4.2-5.7-4.6-8.7-10.8-10.8-17.6-2.6-8.4-3.3-17.1-3.5-25.9,0-1.7.7-2.1,2.2-2.1,5.6,0,11.3,0,16.9,0h0Z"/>
          <path class="cls-1" d="M84.4,58.1c0-6.3,0-12.6,0-19,0-1.7.6-2.3,2.3-2.2,12.9,1,24.6,5.3,35.2,12.6,1.4,1,1.1,5.1-.4,6-1.9,1.2-2.9,2.8-2.9,5,0,2.7,0,5.3,0,8,0,2.4.9,4.2,3,5.3,1.9,1.1.9,2.9.9,4.3,0,.4-1.4,1-2.1,1-11.2,0-22.4,0-33.6,0-2.2,0-2.4-.2-2.4-2.5,0-6.2,0-12.5,0-18.8h0,0Z"/>
          <path class="cls-2" d="M162.8,58.2c0,6.3,0,12.5,0,18.7,0,1.9-.6,2.4-2.5,2.4-11.1,0-22.3,0-33.4,0-.8,0-2.2-.5-2.2-.9-.2-1.5-1-3.3.8-4.4,2.3-1.4,3.2-3.2,3.1-5.8-.1-2.7,0-5.3,0-8s-.9-3.4-2.5-4.5c-2.1-1.3-2.2-5.2-.1-6.6,6-4.1,12.4-7.5,19.5-9.3,4.9-1.3,10-2.1,15.1-2.9,2.2-.3,2.4,0,2.4,2.3,0,6.3,0,12.6,0,18.9h0Z"/>
          <path class="cls-5" d="M107.6,37.7c.6-.2,1.2-.4,1.9-.6,3.6-1.1,7.1-2.1,10.7-3.2,1.2-.3,1.6-1,1.8-2.3.4-4-1.4-6.5-4.8-8.4-2.1-1.2-4.2-2.5-5.7-4.3-2.8-3.4-2.7-8.5.2-12.5,1.5-2.1,3.5-3.9,5.4-5.6,1.6-1.4,3.5-1,4.6.4,1.1,1.4.6,2.9-.9,4.3-1.4,1.3-2.9,2.7-4,4.3-1.9,2.6-1.4,4.8,1.3,6.7,2,1.4,4.2,2.5,5.9,4,3.4,3.1,4.7,7.1,4.1,11.6-.2,1.4.1,2.1,1.5,2.4,2.8.7,5.6,1.6,8.4,2.4.6.2,1.3.4,2.4.7-.9.5-1.3.8-1.8,1-4.4,2.5-8.9,4.9-13.2,7.5-1.3.8-2.1.8-3.4,0-4.2-2.6-8.6-4.9-12.9-7.3-.5-.3-.9-.5-1.4-.7,0-.2,0-.4,0-.6h0Z"/>
          <path class="cls-5" d="M120.4,64.7c0-1.4,0-2.8,0-4.3.1-2.1,1.4-3.4,3.2-3.4,1.8,0,3.3,1.2,3.4,3.2.1,3,.1,6,0,9.1-.1,2-1.5,3.1-3.3,3.1-1.8,0-2.9-1.2-3.2-3.2,0-.1,0-.2,0-.4v-4.1h0Z"/>
        </g>
      </g>
      <g id="Capa_4">
        <path class="cls-3" d="M57.2,61.8h-14.9l-14.2,52.8h-4.8v-43.2h12.5v-9.6H0v9.6h12.5v43.2H0v9.7h36.1l3.2-12.3h19.8l3.1,12.3h11.8l-16.8-62.5h0ZM41.8,102.3l7.5-29.1,7.4,29.1h-14.8Z"/>
        <path class="cls-4" d="M20.4,162.2l-.6-18.4-.2-7.4-1.6,5-3.6,11.1h-3.8l-3.3-11.1-1.4-5-.2,7.2-.6,18.6H0l1.6-32.6h6.9l2.9,9.2,1.4,5.2,1.4-4.9,3-9.5h7.1l1.6,32.6h-5.4Z"/>
        <path class="cls-4" d="M46.3,162.2v-3.3c-.7.6-1.2,1.1-1.8,1.6-.6.5-1.2.9-1.9,1.2-.7.4-1.5.6-2.3.8-.8.2-1.7.3-2.7.3s-2.4-.2-3.4-.6-1.8-.9-2.5-1.6c-.7-.7-1.2-1.5-1.5-2.5-.3-1-.5-2-.5-3.2s.2-2.3.8-3.3,1.3-1.9,2.3-2.6c1-.7,2.3-1.3,3.9-1.7,1.6-.4,3.4-.6,5.5-.6h3.3v-1.5c0-.6,0-1.2-.3-1.8-.2-.5-.5-1-.9-1.3-.4-.4-.9-.6-1.6-.9s-1.4-.3-2.4-.3c-1.5,0-3,.2-4.4.5s-2.9.8-4.2,1.4v-4.9c1.2-.5,2.6-.9,4.2-1.2,1.6-.3,3.2-.5,4.9-.5s3.5.2,4.8.5c1.4.4,2.4.9,3.3,1.6.9.7,1.5,1.6,1.9,2.7.4,1.1.6,2.3.6,3.8v17.3h-5.2ZM45.4,151.1h-3.7c-1,0-1.9.1-2.6.3-.7.2-1.3.5-1.7.8-.4.4-.8.8-1,1.2-.2.5-.3.9-.3,1.5,0,1,.3,1.8,1,2.4.7.5,1.6.8,2.7.8s1.7-.3,2.6-.9,1.9-1.5,3-2.6v-3.4h0Z"/>
        <path class="cls-4" d="M74.7,146.8c0-.9,0-1.8-.1-2.4-.1-.7-.3-1.2-.6-1.6-.3-.4-.6-.8-1-.9s-.9-.3-1.4-.3c-.9,0-1.8.4-2.8,1.1-1,.7-2,2-3.1,3.6v16h-6.2v-25.3h5.5l.2,3.7c.4-.6.9-1.2,1.4-1.7.5-.5,1.1-1,1.7-1.3s1.4-.7,2.1-.9,1.6-.3,2.6-.3,2.4.2,3.4.7c1,.4,1.8,1.1,2.5,2,.7.9,1.2,1.9,1.5,3.2.3,1.3.5,2.8.4,4.5h-6.1Z"/>
        <path class="cls-4" d="M109.3,136.9h-7.6l-8.8,10.7v-24.5c-2.3-2.3-4.4-4.8-6.1-7.5v46.6h6.1v-12.7l9.3,12.7h7.9l-11.1-13.8,10.3-11.5h0Z"/>
        <path class="cls-4" d="M120.8,137.3s0,0-.1,0c-1.5.7-2.7,1.6-3.8,2.8s-1.8,2.6-2.4,4.3c-.6,1.7-.9,3.6-.9,5.6s.3,3.9.9,5.5c.6,1.6,1.4,2.9,2.4,4s2.4,1.9,3.9,2.4c1.5.6,3.2.8,5.2.8s1.6,0,2.4,0c.8,0,1.6-.1,2.4-.3.8-.1,1.6-.2,2.3-.4s1.5-.3,2.1-.5v-4.8c-1.5.4-3,.7-4.4.9-1.4.2-2.7.3-3.9.3s-2-.1-2.9-.4-1.6-.7-2.2-1.3c-.6-.6-1.1-1.3-1.4-2.1s-.5-1.8-.5-2.9h16.6c0-.6,0-1.2.1-1.9,0-.7,0-1.2,0-1.6,0-1.6-.2-3.2-.7-4.5-.5-1.4-1.2-2.6-2.1-3.6-.9-1-2.1-1.8-3.5-2.3-.3-.1-.6-.2-.9-.3-3,.5-5.9.6-8.7.4h0ZM127.4,141.3c.6.2,1.1.6,1.6,1.1.5.5.8,1.1,1.1,1.8.3.7.4,1.6.4,2.6h-10.5c.2-1.9.8-3.3,1.7-4.3,1-1,2.2-1.5,3.8-1.5s1.4.1,2,.4h0Z"/>
        <path class="cls-4" d="M150.8,126.6c-.4.3-.8.6-1.1,1-.9.8-1.6,1.4-2.2,1.8v7.6h-6.8v4.7h6.8v12.4c0,1.5.2,2.8.6,3.9.4,1.1,1,2,1.7,2.7.8.7,1.8,1.2,3,1.6s2.6.5,4.3.5,2.1,0,3.2-.2c1.1-.1,2.2-.4,3.3-.6v-4.9c-.8.2-1.6.4-2.6.6-.9.2-1.9.2-2.9.2-1.6,0-2.7-.4-3.3-1.1-.7-.7-1-1.8-1-3.3v-11.9h9.8v-4.7h-9.8v-12.9c-.9.9-1.8,1.8-2.8,2.6h0Z"/>
      </g>
    </g>
  </g>
</svg>